Motion_pl10
version=1
nRows=5
nColumns=43
inDegrees=yes
endheader
time	pelvis_tilt	pelvis_list	pelvis_rotation	pelvis_tx	pelvis_ty	pelvis_tz	hip_flexion_r	hip_adduction_r	hip_rotation_r	knee_angle_r	ankle_angle_r	subtalar_angle_r	mtp_angle_r	hip_flexion_l	hip_adduction_l	hip_rotation_l	knee_angle_l	ankle_angle_l	subtalar_angle_l	mtp_angle_l	lumbar_extension	lumbar_bending	lumbar_rotation	neck_flexion	neck_lateral_bending	neck_rotation	arm_flex_r	arm_add_r	arm_rot_r	elbow_flex_r	pro_sup_r	wrist_flex_r	wrist_dev_r	hand_finger_flex_r	arm_flex_l	arm_add_l	arm_rot_l	elbow_flex_l	pro_sup_l	wrist_flex_l	wrist_dev_l	hand_finger_flex_l
      0.97000000	     -3.32649585	      5.63623790	     97.50943297	      0.01519864	      0.42622873	      0.50575139	     91.27347506	     -8.07713699	      5.17665307	   -135.53554010	     17.60278788	      3.35962949	     19.72224213	     85.71397176	     -4.93678321	      1.60773432	   -137.77016650	     20.59415368	      6.53560559	     29.31625647	    -64.76928086	     -4.47237331	     -1.72411962	     20.83694417	      9.72160997	     -7.18446541	     64.25850343	    -37.47260724	     15.81351965	     63.08705300	    120.34386008	    -26.07365016	    -16.21619739	    -25.01619136	     85.04183868	    -26.30193733	     32.61690973	     66.36186041	    142.61985621	    -45.19978934	    -11.00459515	     -6.01440761
      0.97250000	     -3.50293411	      5.57516283	     97.51818543	      0.01569522	      0.42386167	      0.50545908	     91.76412402	     -8.13434493	      5.25154798	   -135.92618791	     17.60060579	      3.25784475	     19.74066943	     86.02661657	     -5.24209715	      1.42081000	   -138.04325276	     20.72103398	      6.64175469	     29.36100727	    -65.03311103	     -4.61696167	     -1.88923250	     21.21398189	      9.75611040	     -7.20674675	     66.22647346	    -37.25352077	     16.37833902	     62.91653953	    120.21046232	    -25.64367093	    -16.27060919	    -25.14073143	     87.18620637	    -25.56362178	     33.26052896	     65.74718142	    142.80241073	    -44.43692884	    -11.29308088	     -6.05011461
      0.97500000	     -3.71850668	      5.61615209	     97.49884438	      0.01605162	      0.42174703	      0.50515529	     92.13094863	     -8.17241828	      5.43589387	   -136.27698496	     17.57374640	      3.08379311	     19.74832707	     86.22872136	     -5.50425460	      1.20786529	   -138.34736948	     20.77688970	      6.73886031	     29.40910144	    -65.39560740	     -4.78277386	     -2.06337571	     21.56663686	      9.85740096	     -7.20791291	     68.21470915	    -36.95077803	     16.88111604	     62.64235112	    120.07849111	    -25.23090880	    -16.24096879	    -25.25601414	     89.25735593	    -24.76412650	     33.80732378	     65.07316229	    143.02443390	    -43.65774855	    -11.52762722	     -6.14520692
      0.97750000	     -4.19386954	      5.93842254	     97.46040059	      0.01652632	      0.42065628	      0.50502392	     92.14790842	     -8.19899410	      5.78335360	   -136.59662979	     17.47237167	      2.75514384	     19.77301126	     85.93199398	     -5.67619146	      0.71316800	   -138.51336673	     20.76146483	      6.69211371	     29.53803373	    -66.16908019	     -5.12506624	     -2.48303630	     21.88397483	     10.07945232	     -7.14374015	     70.34485893	    -36.54197807	     17.51410938	     62.21039490	    119.53213040	    -24.90082918	    -16.19149387	    -25.88234367	     91.40077590	    -23.89767630	     34.26234222	     64.27928577	    143.20366008	    -42.75005705	    -11.72477932	     -7.01155246
      0.98000000	     -4.32378547	      5.83269375	     97.49764840	      0.01682841	      0.41845650	      0.50485589	     92.65053621	     -8.30744792	      5.85351575	   -136.92330909	     17.48668408	      2.71269664	     19.79382386	     86.38196479	     -5.71738853	      0.64188805	   -138.77968920	     20.63989584	      6.62685731	     29.58159203	    -66.38861836	     -5.18601405	     -2.63716098	     22.21060329	     10.06862109	     -7.15140084	     72.26196111	    -36.28728272	     18.02016808	     62.00390555	    119.55683177	    -24.44464921	    -16.19669439	    -25.93239577	     93.35044069	    -23.12072511	     34.69703401	     63.64967578	    143.49074860	    -41.88164123	    -11.85865049	     -7.19542442
